<svg width="1200" height="760" viewBox="0 0 1200 760" fill="none" xmlns="http://www.w3.org/2000/svg">
  <rect width="1200" height="760" rx="36" fill="#05060B"></rect>
  <defs>
    <linearGradient id="neon" x1="120" y1="90" x2="1080" y2="670">
      <stop stop-color="#00F5FF"></stop>
      <stop offset="0.5" stop-color="#39FF14"></stop>
      <stop offset="1" stop-color="#FF8A00"></stop>
    </linearGradient>
    <filter id="glow"><feGaussianBlur stdDeviation="8" result="blur"></feGaussianBlur><feMerge><feMergeNode in="blur"></feMergeNode><feMergeNode in="SourceGraphic"></feMergeNode></feMerge></filter>
    <filter id="bigGlow"><feGaussianBlur stdDeviation="24" result="blur"></feGaussianBlur><feMerge><feMergeNode in="blur"></feMergeNode><feMergeNode in="SourceGraphic"></feMergeNode></feMerge></filter>
  </defs>

  <g opacity="0.18">
    <path d="M0 120H1200M0 240H1200M0 360H1200M0 480H1200M0 600H1200" stroke="#00F5FF"></path>
    <path d="M120 0V760M240 0V760M360 0V760M480 0V760M600 0V760M720 0V760M840 0V760M960 0V760M1080 0V760" stroke="#00F5FF"></path>
  </g>

  <circle cx="180" cy="130" r="110" fill="#00F5FF" opacity="0.18" filter="url(#bigGlow)"></circle>
  <circle cx="990" cy="140" r="92" fill="#FF8A00" opacity="0.16" filter="url(#bigGlow)"></circle>
  <circle cx="1010" cy="615" r="140" fill="#39FF14" opacity="0.13" filter="url(#bigGlow)"></circle>

  <rect x="110" y="86" width="980" height="588" rx="32" fill="#0B1020" stroke="url(#neon)" stroke-width="3" filter="url(#glow)"></rect>

  <text x="150" y="170" fill="#ECFFFF" font-family="Inter, Arial, sans-serif" font-size="74" font-weight="900" letter-spacing="-4">PRAIRIE</text>
  <text x="150" y="242" fill="#39FF14" font-family="Inter, Arial, sans-serif" font-size="78" font-weight="900" letter-spacing="-4" filter="url(#glow)">RUSH</text>
  <text x="154" y="286" fill="#9BB9C7" font-family="Inter, Arial, sans-serif" font-size="24">UNITY • C# • UI/UX GAMEPLAY • ARCADE DESIGN</text>

  <g filter="url(#glow)">
    <path d="M150 560C260 470 360 510 470 430C560 365 655 380 750 310C870 220 965 250 1050 170" stroke="#00F5FF" stroke-width="7" stroke-linecap="round"></path>
    <path d="M150 610C270 520 360 560 480 480C575 418 680 430 770 365C870 292 965 310 1050 240" stroke="#39FF14" stroke-width="5" stroke-linecap="round"></path>
  </g>

  <g>
    <rect x="460" y="325" width="260" height="150" rx="28" fill="#07101A" stroke="#00F5FF" stroke-width="3" filter="url(#glow)"></rect>
    <rect x="500" y="365" width="70" height="70" rx="18" fill="#39FF14" opacity="0.9"></rect>
    <rect x="610" y="365" width="70" height="70" rx="18" fill="#FF8A00" opacity="0.9"></rect>
    <circle cx="535" cy="400" r="12" fill="#05060B"></circle>
    <circle cx="645" cy="400" r="12" fill="#05060B"></circle>
    <path d="M530 475L590 525L650 475" stroke="#00F5FF" stroke-width="8" stroke-linecap="round" stroke-linejoin="round" filter="url(#glow)"></path>
  </g>

  <g filter="url(#glow)">
    <rect x="790" y="360" width="90" height="90" rx="18" fill="#05060B" stroke="#39FF14" stroke-width="4"></rect>
    <path d="M835 336V474" stroke="#39FF14" stroke-width="5" stroke-linecap="round"></path>
    <path d="M766 405H904" stroke="#39FF14" stroke-width="5" stroke-linecap="round"></path>
  </g>

  <g filter="url(#glow)">
    <circle cx="955" cy="400" r="45" fill="#05060B" stroke="#FF8A00" stroke-width="5"></circle>
    <circle cx="955" cy="400" r="14" fill="#FF8A00"></circle>
  </g>

  <rect x="150" y="330" width="210" height="54" rx="27" fill="rgba(0,245,255,0.12)" stroke="#00F5FF"></rect>
  <text x="186" y="365" fill="#ECFFFF" font-family="Inter, Arial, sans-serif" font-size="20" font-weight="800">JUMP SYSTEM</text>

  <rect x="150" y="405" width="210" height="54" rx="27" fill="rgba(57,255,20,0.10)" stroke="#39FF14"></rect>
  <text x="186" y="440" fill="#ECFFFF" font-family="Inter, Arial, sans-serif" font-size="20" font-weight="800">UI REFACTOR</text>

  <rect x="150" y="480" width="210" height="54" rx="27" fill="rgba(255,138,0,0.10)" stroke="#FF8A00"></rect>
  <text x="186" y="515" fill="#ECFFFF" font-family="Inter, Arial, sans-serif" font-size="20" font-weight="800">MUSIC + TEXTURES</text>

  <text x="775" y="570" fill="#ECFFFF" font-family="Inter, Arial, sans-serif" font-size="34" font-weight="900">ARCADE RUNNER</text>
  <text x="775" y="610" fill="#9BB9C7" font-family="Inter, Arial, sans-serif" font-size="21">Built for user-friendly interaction design</text>
</svg>