<svg xmlns="http://www.w3.org/2000/svg" viewBox="0 0 900 520" role="img" aria-label="RabbitMQ architecture diagram"><defs><linearGradient id="g" x1="0" x2="1"><stop stop-color="#00f5ff"/><stop offset="1" stop-color="#ff8a00"/></linearGradient><filter id="glow"><feGaussianBlur stdDeviation="7" result="b"/><feMerge><feMergeNode in="b"/><feMergeNode in="SourceGraphic"/></feMerge></filter></defs><rect width="900" height="520" fill="#06070d"/><path d="M0 420 C150 330 260 450 420 360 S720 260 900 350" fill="none" stroke="#17344a" stroke-width="2"/><g filter="url(#glow)"><rect x="70" y="140" width="170" height="95" rx="18" fill="#0b1020" stroke="#00f5ff"/><text x="155" y="178" fill="#eaffff" text-anchor="middle" font-family="Arial" font-size="22">MVC App</text><text x="155" y="207" fill="#8ff" text-anchor="middle" font-family="Arial" font-size="14">Controller</text><rect x="365" y="90" width="170" height="95" rx="18" fill="#0b1020" stroke="#39ff14"/><text x="450" y="128" fill="#eaffff" text-anchor="middle" font-family="Arial" font-size="22">API</text><text x="450" y="157" fill="#b6ffae" text-anchor="middle" font-family="Arial" font-size="14">Publish</text><rect x="365" y="295" width="170" height="95" rx="18" fill="#0b1020" stroke="#ff8a00"/><text x="450" y="333" fill="#eaffff" text-anchor="middle" font-family="Arial" font-size="22">RabbitMQ</text><text x="450" y="362" fill="#ffd3a0" text-anchor="middle" font-family="Arial" font-size="14">Queue</text><rect x="660" y="190" width="170" height="95" rx="18" fill="#0b1020" stroke="#00f5ff"/><text x="745" y="228" fill="#eaffff" text-anchor="middle" font-family="Arial" font-size="22">Consumers</text><text x="745" y="257" fill="#8ff" text-anchor="middle" font-family="Arial" font-size="14">Workers</text></g><path d="M240 188 H345" stroke="url(#g)" stroke-width="5" marker-end="url(#a)"/><path d="M450 185 V280" stroke="url(#g)" stroke-width="5"/><path d="M535 342 C610 335 635 260 660 238" stroke="url(#g)" stroke-width="5"/><defs><marker id="a" markerWidth="10" markerHeight="10" refX="8" refY="3" orient="auto"><path d="M0 0 L0 6 L9 3 z" fill="#00f5ff"/></marker></defs></svg>
