<svg width="1200" height="760" viewBox="0 0 1200 760" fill="none" xmlns="http://www.w3.org/2000/svg">
  <rect width="1200" height="760" rx="36" fill="#050816"></rect>

  <defs>
    <linearGradient id="panel" x1="100" y1="80" x2="1100" y2="680">
      <stop stop-color="#0A1226"></stop>
      <stop offset="1" stop-color="#07101F"></stop>
    </linearGradient>

    <linearGradient id="neon" x1="180" y1="120" x2="1020" y2="640">
      <stop stop-color="#35F2FF"></stop>
      <stop offset="0.52" stop-color="#72FF7E"></stop>
      <stop offset="1" stop-color="#FF8A3D"></stop>
    </linearGradient>

    <filter id="glow">
      <feGaussianBlur stdDeviation="8" result="blur"></feGaussianBlur>
      <feMerge>
        <feMergeNode in="blur"></feMergeNode>
        <feMergeNode in="SourceGraphic"></feMergeNode>
      </feMerge>
    </filter>

    <filter id="softGlow">
      <feGaussianBlur stdDeviation="18" result="blur"></feGaussianBlur>
      <feMerge>
        <feMergeNode in="blur"></feMergeNode>
        <feMergeNode in="SourceGraphic"></feMergeNode>
      </feMerge>
    </filter>
  </defs>

  <g opacity="0.3">
    <path d="M0 120H1200" stroke="#35F2FF" stroke-opacity="0.12"></path>
    <path d="M0 240H1200" stroke="#35F2FF" stroke-opacity="0.12"></path>
    <path d="M0 360H1200" stroke="#35F2FF" stroke-opacity="0.12"></path>
    <path d="M0 480H1200" stroke="#35F2FF" stroke-opacity="0.12"></path>
    <path d="M0 600H1200" stroke="#35F2FF" stroke-opacity="0.12"></path>

    <path d="M120 0V760" stroke="#35F2FF" stroke-opacity="0.12"></path>
    <path d="M240 0V760" stroke="#35F2FF" stroke-opacity="0.12"></path>
    <path d="M360 0V760" stroke="#35F2FF" stroke-opacity="0.12"></path>
    <path d="M480 0V760" stroke="#35F2FF" stroke-opacity="0.12"></path>
    <path d="M600 0V760" stroke="#35F2FF" stroke-opacity="0.12"></path>
    <path d="M720 0V760" stroke="#35F2FF" stroke-opacity="0.12"></path>
    <path d="M840 0V760" stroke="#35F2FF" stroke-opacity="0.12"></path>
    <path d="M960 0V760" stroke="#35F2FF" stroke-opacity="0.12"></path>
    <path d="M1080 0V760" stroke="#35F2FF" stroke-opacity="0.12"></path>
  </g>

  <circle cx="170" cy="120" r="92" fill="#35F2FF" opacity="0.12" filter="url(#softGlow)"></circle>
  <circle cx="1035" cy="625" r="120" fill="#72FF7E" opacity="0.1" filter="url(#softGlow)"></circle>
  <circle cx="1020" cy="150" r="72" fill="#FF8A3D" opacity="0.11" filter="url(#softGlow)"></circle>

  <rect x="110" y="86" width="980" height="588" rx="30" fill="url(#panel)" stroke="url(#neon)" stroke-width="3" filter="url(#glow)"></rect>

  <rect x="150" y="126" width="900" height="64" rx="18" fill="#08142B" stroke="#35F2FF" stroke-opacity="0.45"></rect>

  <circle cx="184" cy="158" r="9" fill="#FF8A3D"></circle>
  <circle cx="214" cy="158" r="9" fill="#72FF7E"></circle>
  <circle cx="244" cy="158" r="9" fill="#35F2FF"></circle>

  <text x="290" y="166" fill="#EAF7FF" font-family="Inter, Arial, sans-serif" font-size="22" font-weight="700">
    WordProcessor Control Panel
  </text>

  <rect x="150" y="226" width="220" height="388" rx="22" fill="#050C1A" stroke="#35F2FF" stroke-opacity="0.35"></rect>
  <text x="180" y="270" fill="#35F2FF" font-family="Inter, Arial, sans-serif" font-size="18" font-weight="700">
    DOCUMENTS
  </text>

  <rect x="180" y="304" width="160" height="42" rx="12" fill="#071B2C" stroke="#35F2FF" stroke-opacity="0.35"></rect>
  <text x="202" y="331" fill="#EAF7FF" font-family="Inter, Arial, sans-serif" font-size="15">
    Journal Entry
  </text>

  <rect x="180" y="364" width="160" height="42" rx="12" fill="#071B2C" stroke="#72FF7E" stroke-opacity="0.35"></rect>
  <text x="202" y="391" fill="#EAF7FF" font-family="Inter, Arial, sans-serif" font-size="15">
    Public Tutorial
  </text>

  <rect x="180" y="424" width="160" height="42" rx="12" fill="#071B2C" stroke="#FF8A3D" stroke-opacity="0.35"></rect>
  <text x="202" y="451" fill="#EAF7FF" font-family="Inter, Arial, sans-serif" font-size="15">
    Friends Draft
  </text>

  <rect x="405" y="226" width="420" height="388" rx="24" fill="#F7FBFF"></rect>
  <rect x="405" y="226" width="420" height="54" rx="24" fill="#EAF1F8"></rect>
  <rect x="405" y="256" width="420" height="24" fill="#EAF1F8"></rect>

  <rect x="438" y="246" width="34" height="16" rx="5" fill="#0A1226" opacity="0.85"></rect>
  <rect x="488" y="246" width="34" height="16" rx="5" fill="#0A1226" opacity="0.65"></rect>
  <rect x="538" y="246" width="34" height="16" rx="5" fill="#0A1226" opacity="0.45"></rect>

  <rect x="448" y="324" width="308" height="16" rx="8" fill="#0A1226" opacity="0.85"></rect>
  <rect x="448" y="362" width="246" height="12" rx="6" fill="#0A1226" opacity="0.55"></rect>
  <rect x="448" y="392" width="310" height="12" rx="6" fill="#0A1226" opacity="0.38"></rect>
  <rect x="448" y="422" width="275" height="12" rx="6" fill="#0A1226" opacity="0.38"></rect>
  <rect x="448" y="452" width="300" height="12" rx="6" fill="#0A1226" opacity="0.38"></rect>

  <rect x="448" y="508" width="120" height="36" rx="12" fill="#35F2FF"></rect>
  <text x="481" y="532" fill="#021018" font-family="Inter, Arial, sans-serif" font-size="14" font-weight="700">
    SAVE
  </text>

  <rect x="592" y="508" width="140" height="36" rx="12" fill="#72FF7E"></rect>
  <text x="623" y="532" fill="#021018" font-family="Inter, Arial, sans-serif" font-size="14" font-weight="700">
    SHARE
  </text>

  <rect x="860" y="226" width="190" height="388" rx="22" fill="#050C1A" stroke="#72FF7E" stroke-opacity="0.35"></rect>
  <text x="892" y="270" fill="#72FF7E" font-family="Inter, Arial, sans-serif" font-size="18" font-weight="700">
    VISIBILITY
  </text>

  <rect x="890" y="314" width="130" height="46" rx="15" fill="#071B2C" stroke="#35F2FF" stroke-opacity="0.45"></rect>
  <text x="925" y="343" fill="#EAF7FF" font-family="Inter, Arial, sans-serif" font-size="15">
    Public
  </text>

  <rect x="890" y="386" width="130" height="46" rx="15" fill="#071B2C" stroke="#72FF7E" stroke-opacity="0.45"></rect>
  <text x="914" y="415" fill="#EAF7FF" font-family="Inter, Arial, sans-serif" font-size="15">
    Self-Only
  </text>

  <rect x="890" y="458" width="130" height="46" rx="15" fill="#071B2C" stroke="#FF8A3D" stroke-opacity="0.5"></rect>
  <text x="910" y="487" fill="#EAF7FF" font-family="Inter, Arial, sans-serif" font-size="15">
    Friends
  </text>

  <path d="M370 420H405" stroke="#35F2FF" stroke-width="3" stroke-linecap="round" filter="url(#glow)"></path>
  <path d="M825 420H860" stroke="#72FF7E" stroke-width="3" stroke-linecap="round" filter="url(#glow)"></path>

  <path d="M390 420L376 412V428L390 420Z" fill="#35F2FF"></path>
  <path d="M845 420L831 412V428L845 420Z" fill="#72FF7E"></path>

  <text x="156" y="700" fill="#8FA8C5" font-family="Inter, Arial, sans-serif" font-size="18">
    Rich Text Editor → Saved Documents → Permission-Based Sharing
  </text>

  <text x="760" y="700" fill="#35F2FF" font-family="Inter, Arial, sans-serif" font-size="18" font-weight="700">
    PUBLIC / SELF-ONLY / FRIENDS-ONLY
  </text>
</svg>